<?xml version="1.0" encoding="UTF-8" standalone="no"?>
<!-- Created with Inkscape (http://www.inkscape.org/) -->

<svg
   xmlns:dc="http://purl.org/dc/elements/1.1/"
   xmlns:cc="http://creativecommons.org/ns#"
   xmlns:rdf="http://www.w3.org/1999/02/22-rdf-syntax-ns#"
   xmlns:svg="http://www.w3.org/2000/svg"
   xmlns="http://www.w3.org/2000/svg"
   xmlns:sodipodi="http://sodipodi.sourceforge.net/DTD/sodipodi-0.dtd"
   xmlns:inkscape="http://www.inkscape.org/namespaces/inkscape"
   id="svg3031"
   version="1.1"
   inkscape:version="0.48.4 r9939"
   width="589.25"
   height="518.375"
   xml:space="preserve"
   sodipodi:docname="community.pdf"><metadata
     id="metadata3037"><rdf:RDF><cc:Work
         rdf:about=""><dc:format>image/svg+xml</dc:format><dc:type
           rdf:resource="http://purl.org/dc/dcmitype/StillImage" /><dc:title></dc:title></cc:Work></rdf:RDF></metadata><defs
     id="defs3035"><clipPath
       clipPathUnits="userSpaceOnUse"
       id="clipPath3045"><path
         d="m 0,-0.2 793.6,0 0,595.2 L 0,595 0,-0.2 z"
         clip-rule="evenodd"
         id="path3047"
         inkscape:connector-curvature="0" /></clipPath><clipPath
       clipPathUnits="userSpaceOnUse"
       id="clipPath3133"><path
         d="m 397,-38 0,0 0,670.1 0,0 0,-670.1 z"
         id="path3135"
         inkscape:connector-curvature="0" /></clipPath></defs><sodipodi:namedview
     pagecolor="#ffffff"
     bordercolor="#666666"
     borderopacity="1"
     objecttolerance="10"
     gridtolerance="10"
     guidetolerance="10"
     inkscape:pageopacity="0"
     inkscape:pageshadow="2"
     inkscape:window-width="1440"
     inkscape:window-height="834"
     id="namedview3033"
     showgrid="false"
     fit-margin-top="20"
     fit-margin-left="20"
     fit-margin-right="20"
     fit-margin-bottom="20"
     inkscape:zoom="0.89749082"
     inkscape:cx="134.24565"
     inkscape:cy="182.45576"
     inkscape:window-x="0"
     inkscape:window-y="27"
     inkscape:window-maximized="1"
     inkscape:current-layer="g3043" /><g
     id="g3039"
     inkscape:groupmode="layer"
     inkscape:label="community"
     transform="matrix(1.25,0,0,-1.25,-192.625,586.5)"><g
       id="g3041"><g
         id="g3043"
         clip-path="url(#clipPath3045)"><path
           d="m 403.9,339.9 c 36.2,0 63.8,-27.6 63.8,-63.8 0,-36.1 -27.6,-63.7 -63.8,-63.7 -36.1,0 -63.7,27.6 -63.7,63.7 0,36.2 27.6,63.8 63.7,63.8 z m -63.7,0 0,0 z m 127.5,-127.6 0,0 z"
           style="fill:#ffd320;fill-opacity:1;fill-rule:evenodd;stroke:none"
           id="path3049"
           inkscape:connector-curvature="0" /><g
           id="g3051"
           transform="translate(-0.1340018,-2.676)"><text
             transform="matrix(1,0,0,-1,364.1,269.2)"
             id="text3053"><tspan
               style="font-size:28px;font-variant:normal;font-weight:normal;writing-mode:lr-tb;fill:#000000;fill-opacity:1;fill-rule:nonzero;stroke:none;font-family:Myriad Pro;-inkscape-font-specification:MyriadProSemiboldCondensed"
               x="0 10.192 15.904 27.804001 35.476002 46.563999 54.152 59.919998 70.924004"
               y="0"
               sodipodi:role="line"
               id="tspan3055">Libraries</tspan></text>
</g><path
           d="m 318.9,453.2 c 36.2,0 63.8,-27.6 63.8,-63.7 0,-36.2 -27.6,-63.8 -63.8,-63.8 -36.1,0 -63.8,27.6 -63.8,63.8 0,36.1 27.7,63.7 63.8,63.7 z m -63.8,0 0,0 z m 127.6,-127.5 0,0 z"
           style="fill:#005b4e;fill-opacity:1;fill-rule:evenodd;stroke:none"
           id="path3057"
           inkscape:connector-curvature="0" /><g
           id="g3151"
           transform="translate(0.10999835,-2.738)"><g
             id="g3059"><text
               id="text3061"
               transform="matrix(1,0,0,-1,279.1,399.1)"><tspan
                 id="tspan3063"
                 sodipodi:role="line"
                 y="0"
                 x="0 10.304 20.664 38.863998 45.976002 57.456001 69.244003"
                 style="font-size:28px;font-variant:normal;font-weight:normal;writing-mode:lr-tb;fill:#ffffff;fill-opacity:1;fill-rule:nonzero;stroke:none;font-family:Myriad Pro;-inkscape-font-specification:MyriadProSemiboldCondensed">Symfony</tspan></text>
</g><g
             id="g3065"><text
               id="text3067"
               transform="matrix(1,0,0,-1,281.8,365.9)"><tspan
                 id="tspan3069"
                 sodipodi:role="line"
                 y="0"
                 x="0 12.684 24.667999 36.764 48.664001 54.543999 65.547997"
                 style="font-size:28px;font-variant:normal;font-weight:normal;writing-mode:lr-tb;fill:#ffffff;fill-opacity:1;fill-rule:nonzero;stroke:none;font-family:Myriad Pro;-inkscape-font-specification:MyriadProSemiboldCondensed">Bundles</tspan></text>
</g></g><path
           d="m 389.8,198.1 c 36.2,0 63.8,-27.6 63.8,-63.8 0,-36.1 -27.6,-63.7 -63.8,-63.7 -36.2,0 -63.8,27.6 -63.8,63.7 0,36.2 27.6,63.8 63.8,63.8 z m -63.8,0 0,0 z m 127.6,-127.6 0,0 z"
           style="fill:#005b4e;fill-opacity:1;fill-rule:evenodd;stroke:none"
           id="path3071"
           inkscape:connector-curvature="0" /><g
           id="g3159"
           transform="translate(-0.17399814,0.012)"><g
             id="g3073"><text
               id="text3075"
               transform="matrix(1,0,0,-1,356.5,144)"><tspan
                 id="tspan3077"
                 sodipodi:role="line"
                 y="0"
                 x="0 10.192 21.280001 28.952 39.563999 49.560001 60.563999"
                 style="font-size:28px;font-variant:normal;font-weight:normal;writing-mode:lr-tb;fill:#ffffff;fill-opacity:1;fill-rule:nonzero;stroke:none;font-family:Myriad Pro;-inkscape-font-specification:MyriadProSemiboldCondensed">Laravel</tspan></text>
</g><g
             id="g3079"><text
               id="text3081"
               transform="matrix(1,0,0,-1,347.4,110.8)"><tspan
                 id="tspan3083"
                 sodipodi:role="line"
                 y="0"
                 x="0 11.396 22.4 31.164 42.139999 53.144001 65.043999 76.103996"
                 style="font-size:28px;font-variant:normal;font-weight:normal;writing-mode:lr-tb;fill:#ffffff;fill-opacity:1;fill-rule:nonzero;stroke:none;font-family:Myriad Pro;-inkscape-font-specification:MyriadProSemiboldCondensed">Packages</tspan></text>
</g></g><path
           d="m 269.3,297.3 c 32.1,0 56.7,-24.5 56.7,-56.6 0,-32.2 -24.6,-56.7 -56.7,-56.7 -32.2,0 -56.7,24.5 -56.7,56.7 0,32.1 24.5,56.6 56.7,56.6 z m -56.7,0 0,0 z M 326,183.9 l 0,0 z"
           style="fill:#005b4e;fill-opacity:1;fill-rule:evenodd;stroke:none"
           id="path3085"
           inkscape:connector-curvature="0" /><g
           id="g3143"
           transform="translate(0.89600027,-2.564)"><g
             id="g3087"><text
               id="text3089"
               transform="matrix(1,0,0,-1,239.9,250.3)"><tspan
                 id="tspan3091"
                 sodipodi:role="line"
                 y="0"
                 x="0 11.284 22.455999 34.467999 47.375999"
                 style="font-size:28px;font-variant:normal;font-weight:normal;writing-mode:lr-tb;fill:#ffffff;fill-opacity:1;fill-rule:nonzero;stroke:none;font-family:Myriad Pro;-inkscape-font-specification:MyriadProSemiboldCondensed">TYPO3</tspan></text>
</g><g
             id="g3093"><text
               id="text3095"
               transform="matrix(1,0,0,-1,250.4,217.1)"><tspan
                 id="tspan3097"
                 sodipodi:role="line"
                 y="0"
                 x="0 10.584 21.056 29.120001"
                 style="font-size:28px;font-variant:normal;font-weight:normal;writing-mode:lr-tb;fill:#ffffff;fill-opacity:1;fill-rule:nonzero;stroke:none;font-family:Myriad Pro;-inkscape-font-specification:MyriadProSemiboldCondensed">Exts</tspan></text>
</g></g><path
           d="m 510.3,254.8 c 24.1,0 42.5,-18.4 42.5,-42.5 0,-24.1 -18.4,-42.5 -42.5,-42.5 -24.1,0 -42.6,18.4 -42.6,42.5 0,24.1 18.5,42.5 42.6,42.5 z m -42.6,0 0,0 z m 85.1,-85.1 0,0 z"
           style="fill:#005b4e;fill-opacity:1;fill-rule:evenodd;stroke:none"
           id="path3099"
           inkscape:connector-curvature="0" /><g
           id="g3167"
           transform="translate(-0.13400043,-1.706)"><g
             id="g3101"><text
               id="text3103"
               transform="matrix(1,0,0,-1,496.3,219.4)"><tspan
                 id="tspan3105"
                 sodipodi:role="line"
                 y="0"
                 x="0 6.8039999 10.584 14.364 21.167999"
                 style="font-size:18px;font-variant:normal;font-weight:normal;writing-mode:lr-tb;fill:#ffffff;fill-opacity:1;fill-rule:nonzero;stroke:none;font-family:Myriad Pro;-inkscape-font-specification:MyriadProSemiboldCondensed">Silex</tspan></text>
</g><g
             id="g3107"><text
               id="text3109"
               transform="matrix(1,0,0,-1,482.7,196.2)"><tspan
                 id="tspan3111"
                 sodipodi:role="line"
                 y="0"
                 x="0 7.5960002 12.294 19.493999 26.190001 29.879999 37.566002 44.658001 49.554001"
                 style="font-size:18px;font-variant:normal;font-weight:normal;writing-mode:lr-tb;fill:#ffffff;fill-opacity:1;fill-rule:nonzero;stroke:none;font-family:Myriad Pro;-inkscape-font-specification:MyriadProSemiboldCondensed">Providers</tspan></text>
</g></g><path
           d="m 524.4,339.9 c 16.1,0 28.4,-12.3 28.4,-28.4 0,-16.1 -12.3,-28.3 -28.4,-28.3 -16,0 -28.3,12.2 -28.3,28.3 0,16.1 12.3,28.4 28.3,28.4 z m -28.3,0 0,0 z m 56.7,-56.8 0,0 z"
           style="fill:#005b4e;fill-opacity:1;fill-rule:evenodd;stroke:none"
           id="path3113"
           inkscape:connector-curvature="0" /><path
           d="m 446.5,424.9 c 12,0 21.2,-9.2 21.2,-21.3 0,-12 -9.2,-21.2 -21.2,-21.2 -12.1,0 -21.3,9.2 -21.3,21.2 0,12.1 9.2,21.3 21.3,21.3 z m -21.3,0 0,0 z m 42.6,-42.6 0,0 z"
           style="fill:#005b4e;fill-opacity:1;fill-rule:evenodd;stroke:none"
           id="path3115"
           inkscape:connector-curvature="0" /><path
           d="m 524.4,410.7 c 8.1,0 14.2,-6.1 14.2,-14.2 0,-8 -6.1,-14.1 -14.2,-14.1 -8,0 -14.1,6.1 -14.1,14.1 0,8.1 6.1,14.2 14.1,14.2 z m -14.1,0 0,0 z m 28.3,-28.4 0,0 z"
           style="fill:#005b4e;fill-opacity:1;fill-rule:evenodd;stroke:none"
           id="path3117"
           inkscape:connector-curvature="0" /><path
           d="m 510.3,141.4 c 16,0 28.3,-12.2 28.3,-28.3 0,-16.1 -12.3,-28.4 -28.3,-28.4 -16.1,0 -28.4,12.3 -28.4,28.4 0,16.1 12.3,28.3 28.4,28.3 z m -28.4,0 0,0 z m 56.7,-56.7 0,0 z"
           style="fill:#005b4e;fill-opacity:1;fill-rule:evenodd;stroke:none"
           id="path3119"
           inkscape:connector-curvature="0" /><path
           d="m 269.3,155.6 c 16.1,0 28.4,-12.3 28.4,-28.3 0,-16.1 -12.3,-28.4 -28.4,-28.4 -16.1,0 -28.3,12.3 -28.3,28.4 0,16 12.2,28.3 28.3,28.3 z m -28.3,0 0,0 z m 56.7,-56.7 0,0 z"
           style="fill:#005b4e;fill-opacity:1;fill-rule:evenodd;stroke:none"
           id="path3121"
           inkscape:connector-curvature="0" /><path
           d="m 205.5,368.2 c 12.1,0 21.3,-9.2 21.3,-21.3 0,-12 -9.2,-21.2 -21.3,-21.2 -12,0 -21.2,9.2 -21.2,21.2 0,12.1 9.2,21.3 21.2,21.3 z m -21.2,0 0,0 z m 42.5,-42.5 0,0 z"
           style="fill:#005b4e;fill-opacity:1;fill-rule:evenodd;stroke:none"
           id="path3123"
           inkscape:connector-curvature="0" /><path
           d="m 595.3,269 c 8,0 14.2,-6.2 14.2,-14.2 0,-8 -6.2,-14.2 -14.2,-14.2 -8,0 -14.2,6.2 -14.2,14.2 0,8 6.2,14.2 14.2,14.2 z m -14.2,0 0,0 z m 28.4,-28.4 0,0 z"
           style="fill:#005b4e;fill-opacity:1;fill-rule:evenodd;stroke:none"
           id="path3125"
           inkscape:connector-curvature="0" /><path
           d="m 184.3,226.5 c 8,0 14.2,-6.2 14.2,-14.2 0,-8 -6.2,-14.2 -14.2,-14.2 -8,0 -14.2,6.2 -14.2,14.2 0,8 6.2,14.2 14.2,14.2 z m -14.2,0 0,0 z m 28.4,-28.4 0,0 z"
           style="fill:#005b4e;fill-opacity:1;fill-rule:evenodd;stroke:none"
           id="path3127"
           inkscape:connector-curvature="0" /></g></g><g
       id="g3129"><g
         id="g3131" /><g
         id="g3137"><g
           clip-path="url(#clipPath3133)"
           id="g3139"
           style="opacity:0.5"><g
             id="g3141" /></g></g></g></g></svg>